/* XPM */
static char * my_pixmap_xpm[] = {
"64 64 185 2",
"  	c None",
". 	c #F26403",
"+ 	c #F47306",
"@ 	c #F8990A",
"# 	c #FBAD0D",
"$ 	c #FBB00E",
"% 	c #FBAE0D",
"& 	c #FAAB0D",
"* 	c #F99F0B",
"= 	c #F78F09",
"- 	c #F68408",
"; 	c #FAA60D",
"> 	c #FCB40E",
", 	c #FCB50E",
"' 	c #FCB70F",
") 	c #FCB90F",
"! 	c #FDBB0F",
"~ 	c #FDBE10",
"{ 	c #FCB60F",
"] 	c #F79009",
"^ 	c #FCAD0E",
"/ 	c #FAA40D",
"( 	c #FA9D0C",
"_ 	c #FAA00C",
": 	c #FBA60D",
"< 	c #FBAC0E",
"[ 	c #FCAF0E",
"} 	c #F9990B",
"| 	c #F78709",
"1 	c #FBAE0E",
"2 	c #FBB20E",
"3 	c #FDB60F",
"4 	c #FDB810",
"5 	c #FDBA10",
"6 	c #FDB80F",
"7 	c #FBAC0D",
"8 	c #F67E08",
"9 	c #F9950B",
"0 	c #FBAA0E",
"a 	c #F67F08",
"b 	c #FAA80D",
"c 	c #FCB30F",
"d 	c #F99D0C",
"e 	c #F47206",
"f 	c #F36A05",
"g 	c #F8900A",
"h 	c #F57B07",
"i 	c #FAA30D",
"j 	c #FCB20F",
"k 	c #F47406",
"l 	c #F26204",
"m 	c #F15903",
"n 	c #F25E03",
"o 	c #F57A07",
"p 	c #F78C09",
"q 	c #FBAB0E",
"r 	c #FBA70D",
"s 	c #F36E05",
"t 	c #F15902",
"u 	c #F05302",
"v 	c #F05402",
"w 	c #F15B03",
"x 	c #F36504",
"y 	c #F47305",
"z 	c #FCB10F",
"A 	c #F15D03",
"B 	c #F15502",
"C 	c #F46E05",
"D 	c #FBAF0E",
"E 	c #F15C03",
"F 	c #F46D05",
"G 	c #F68308",
"H 	c #F26303",
"I 	c #FBB10E",
"J 	c #FAA70D",
"K 	c #F36D05",
"L 	c #F36604",
"M 	c #F25F03",
"N 	c #FAA50D",
"O 	c #F26304",
"P 	c #F15702",
"Q 	c #F57607",
"R 	c #F15A02",
"S 	c #F47006",
"T 	c #F47806",
"U 	c #F46F06",
"V 	c #F05502",
"W 	c #F05802",
"X 	c #F47105",
"Y 	c #F26003",
"Z 	c #FBA80D",
"` 	c #F26504",
" .	c #FBAD0E",
"..	c #F05902",
"+.	c #F26704",
"@.	c #FCAE0E",
"#.	c #F26104",
"$.	c #F57907",
"%.	c #F78B09",
"&.	c #F8950A",
"*.	c #FAA30C",
"=.	c #F47106",
"-.	c #F67D08",
";.	c #F8910A",
">.	c #FBA50D",
",.	c #FBA90D",
"'.	c #FBAB0D",
").	c #F47005",
"!.	c #F99B0C",
"~.	c #FCB30E",
"{.	c #FCB20E",
"].	c #FDB70F",
"^.	c #F88C0A",
"/.	c #FCB50F",
"(.	c #FDBC0F",
"_.	c #FEBC10",
":.	c #FAAA0D",
"<.	c #FAA80C",
"[.	c #FEBF11",
"}.	c #FEBD10",
"|.	c #FCB10E",
"1.	c #F57707",
"2.	c #F68208",
"3.	c #F99D0B",
"4.	c #FEBE10",
"5.	c #FDBF10",
"6.	c #F57E07",
"7.	c #FAA20C",
"8.	c #FDB40F",
"9.	c #F78A09",
"0.	c #FDB90F",
"a.	c #F57D07",
"b.	c #F26404",
"c.	c #F47506",
"d.	c #FA9F0C",
"e.	c #F57C07",
"f.	c #F36804",
"g.	c #F9960B",
"h.	c #FCB00E",
"i.	c #F05702",
"j.	c #F16103",
"k.	c #FEC011",
"l.	c #FDBB10",
"m.	c #F26203",
"n.	c #FDBD10",
"o.	c #F26103",
"p.	c #F05602",
"q.	c #F99E0B",
"r.	c #F8930A",
"s.	c #F47606",
"t.	c #F46F05",
"u.	c #F68008",
"v.	c #F16003",
"w.	c #F47205",
"x.	c #F99A0B",
"y.	c #F47906",
"z.	c #F15E03",
"A.	c #F15A03",
"B.	c #F26604",
"C.	c #F26804",
"D.	c #F47706",
"E.	c #FDBC10",
"F.	c #FDBA0F",
"G.	c #F78E09",
"H.	c #F99B0B",
"I.	c #F8940A",
"J.	c #F8980A",
"K.	c #F36B04",
"L.	c #FAA50C",
"M.	c #FBA40D",
"N.	c #F78809",
"O.	c #F15802",
"P.	c #F8920A",
"Q.	c #F57807",
"R.	c #F36805",
"S.	c #F15602",
"T.	c #FAA40C",
"U.	c #F78509",
"V.	c #F36404",
"W.	c #F25D03",
"X.	c #F36B05",
"Y.	c #F99C0B",
"Z.	c #F9A00B",
"`.	c #F79109",
" +	c #F68108",
"                                                                                                                                ",
"                                                                                                                                ",
"                                                                                                                                ",
"                                                                                                                                ",
"                                                                                                                                ",
"          . + @ # $ % % $ $ $ $ $ $ & * = -                                                           ; > , ' ' ) ! ~ {         ",
"            ] # ^ / ( ( _ : < [ [ [ < / } |                                                           1 2 3 3 4 5 5 6           ",
"              7 ( | 8 8 | 9 _ : < < 0 / ( = a                                                       b 2 c 3 3 3 4 ' 1           ",
"              d | e f f e 8 g ( / : 0 : ( 9 | h                                                   i 1 c c c 3 3 , j             ",
"                k l m m n f o p } / : / _ 9 | h                                                   q $ c c c c 3 > r             ",
"                s t u u v w x o p } _ _ ( 9 p 8 y                                               ; $ z z c c c , #               ",
"                  A v B v v w f o p } ( } 9 p 8 C                                               1 z z z z c c D                 ",
"                    A E m v u w F 8 p g g p G o f H                                           0 $ z z z z c I J                 ",
"                    K L M m v v n F o G | G 8 e f n .                                       N D z z z z z $ <                   ",
"                      + f O m u P l F Q o o Q F x n R                                       < z z z z z z 1                     ",
"                        S f M B u m l f e e F f l w P A                                   b $ z z z z z $ J                     ",
"                        T U O m u v m l x x x x n w P V O                               i 1 z z z z z $ q                       ",
"                          K O m v u P w n l l l n w P v W                               q $ z z z z z D /                       ",
"                          X Y m v u B P m w n n w m P v u M                           b 2 z z z z z $ Z                         ",
"                            ` P v u v B m w w w w m P v u t                           $ c c z z z $  .                          ",
"                              ..u v v P P m w w m P B u v m +.                      @.2 c c z z z D N                           ",
"                              l V B P P m m m m P B v u P M f a                   0 > c c c z z $ 0                             ",
"                                #.m m w w m m m P v u B E L $.%.                  c 3 3 c c c z 1                               ",
"                                  Y n n n w m P B u v m O + | &.*.              $ ' 3 3 c c c 2 J                               ",
"                                  =.x x l n m P v u B M f -.;.>.D ,.          '.' 4 4 3 c c 2  .                                ",
"                                    ).f x l w P v u P O + | !.,.~.{.          ].! 5 4 3 3 c $ N                                 ",
"                                      + F x n m v u m L $.^.!.^ {.@.        /.~ (._.5 4 3 , :.                                  ",
"                                      $.e f l w B u P O + | !.<.q         [ ~ [.~ }._.4 4 |.                                    ",
"                                        1.e x n P u B M U 2.;.3.          /.4.[.5.~ }.5 { ,.                                    ",
"                                        6.Q f l m u v E L $.| =         7.7 8.5 4.5.~ ! |.                                      ",
"                                          $.F x w B u P M f o         9.] !.>.z 5 ~ ~ 0.                                        ",
"                                          a.e f n P u v m b.).        c.$.2.;.d.z _.5.j                                         ",
"                                          e.Q f l m v u B #.        f.M O U -.g.,.5 ~ h.                                        ",
"                                        - 8 Q F l m B u W           i.B m O + ^.>.].~ 4                                         ",
"                                        a o Q F l w P V j.        w u u v E U | d.8.[.5.z                                       ",
"                                      e.o o e f l w P w         j.V v u v E U | >.].[.k.l.                                      ",
"                                    h Q Q Q e f l w R           W v u u B M + ;.,.5 [.k.~ '                                     ",
"                                    c.Q e e F x l E m.        A u u u v m f 2.!.z _.[.k.k.n.^                                   ",
"                                  + F e F F f x n l           E u u B m L $.;.>.8._.[.[.[.5 h.                                  ",
"                                  C F F F f x l o.              p.P E L $.^.d.z 5 4.[.4.].z q.r.                                ",
"                                X F f f f x l n +.              b.M f $.^.d.^ ]._.4.4.].^ d.^.$.s.                              ",
"                              k F f f x x l n j.                  e -.^.d.^ ]._.4.4.5 z d.^.+ O j.                              ",
"                              t.F f f x l n A                     u.] d.^ ]._.[.4._.8.>.;.+ O P v v.                            ",
"                            w.f f f x l n w O                       x.$ ].4.[.[.4.5 ^ !.-.L P u u p.                            ",
"                          y.C f f x x l w z.                          { 4.[.[.[._.8.>.^.+ E v u v u A.                          ",
"                          ).f f x l n w E B.                          @.n.k.k.[.5 z !.2.f m u u v u V C.                        ",
"                        D.F f x x l n w l                               ' 5.k.4.].,.g.-.L m v u u u P `                         ",
"                        C f f x l n w A                                   E.[.5 z d.^.$.f E P B P m M f h                       ",
"                      c.F f x x l w A..                                   j F.].^ !.^.$.U L M M M O f + $.u.                    ",
"                    a.Q F f x l n w v.                                      c $ >.;.| -.+ U U f U + $.$.$.c.                    ",
"                    8 Q F f x l n w                                         i *.g.^.2.-.$.$.$.$.$.$.$.$.U L O                   ",
"                  G.G Q F f l n n b.                                          r.| 2.-.$.$.$.$.$.$.+ U L M B p.                  ",
"                H.I.| o e f l n v.                                              o + U U U U U U f L E B u m F |                 ",
"                7.J.| o F f x O K.                                              t.b.O O O O M E P v u m f 8 } 7 *.              ",
"              J L.9 | o F f x K.                                                  A B B B v u v P n F G } 0 z M.N.              ",
"              1 / g G Q f F t.                                                      O.P m w x e o p ( < z r P.Q.n n             ",
"            0 7 ( p o F e Q h                                                       + Q o G 9 _ 0 z @.M.P.e.R.P S.` a.          ",
"          T.D : 9 G e Q 8 G                                                           x.L.^ z @.M.g.U.+ V.P B W.X.2.G.          ",
"          b :.Y.%.Q e G %.                                                            *.J Z.`. +U x E P P n R.$.9.J.T.J         ",
"                                                                                                                                ",
"                                                                                                                                ",
"                                                                                                                                ",
"                                                                                                                                ",
"                                                                                                                                "};
