/* XPM */
static char * close_xpm[] = {
"20 19 62 1",
" 	c None",
".	c #000000",
"+	c #A1A198",
"@	c #FFFFFF",
"#	c #CDCDC7",
"$	c #CECEC8",
"%	c #D0D0CA",
"&	c #D1D1CC",
"*	c #D3D3CD",
"=	c #D4D4CF",
"-	c #D6D6D1",
";	c #D7D7D2",
">	c #D9D9D4",
",	c #DADAD6",
"'	c #DCDCD7",
")	c #DDDDD9",
"!	c #DFDFDB",
"~	c #F7F7F6",
"{	c #FDFDFD",
"]	c #E0E0DD",
"^	c #E2E2DE",
"/	c #E3E3E0",
"(	c #FCFCFB",
"_	c #E5E5E2",
":	c #FAFAFA",
"<	c #41413F",
"[	c #424240",
"}	c #444443",
"|	c #E6E6E3",
"1	c #E8E8E5",
"2	c #B7B7AF",
"3	c #F9F9F8",
"4	c #424241",
"5	c #454544",
"6	c #E9E9E7",
"7	c #F8F8F7",
"8	c #434342",
"9	c #454545",
"0	c #EBEBE8",
"a	c #F6F6F5",
"b	c #ECECEA",
"c	c #F5F5F4",
"d	c #EEEEEC",
"e	c #F4F4F2",
"f	c #464645",
"g	c #EFEFEE",
"h	c #F2F2F1",
"i	c #464646",
"j	c #474746",
"k	c #F1F1EF",
"l	c #474747",
"m	c #484847",
"n	c #F0F0EE",
"o	c #484848",
"p	c #F4F4F3",
"q	c #EDEDEB",
"r	c #ECECE9",
"s	c #F8F8F8",
"t	c #EAEAE8",
"u	c #FAFAF9",
"v	c #FBFBFB",
"w	c #929289",
"...............     ",
"+@@@@@@@@@@@@@@..   ",
"+@#$%&*=-;>,')!~~.  ",
"+{$%&*=-;>,')!]^/#. ",
"+(%&*=-;>,')!]^/_#. ",
"+:&*=-<[,')!}}/_|12.",
"+3*=-<[44)!}}55|162.",
"+7=-;[4488}}5591602.",
"+a-;>,488}}559160b2.",
"+c;>,')8}}559160bd2.",
"+e>,')!}}559f60bdg2.",
"+h,')!}}559fijbdgk2.",
"+k')!}}559fijlmgkh2.",
"+n)!]}55916jlmokhp2.",
"+d!]^/59160bmokhpc2.",
"+q]^/_|160bdgkhpc~2.",
"+r^/_|160bdgkhpc~s2.",
"+t_|160bdgkhpc~suv2.",
"+wwwwwwwwwwwwwwwwww."};
