/* XPM */
static char * iconify_xpm[] = {
"19 19 60 1",
" 	c #000000",
".	c #636770",
"+	c #FFFFFF",
"@	c #CDCDC7",
"#	c #CECEC8",
"$	c #D0D0CA",
"%	c #D1D1CC",
"&	c #D3D3CD",
"*	c #D4D4CF",
"=	c #D6D6D1",
"-	c #D7D7D2",
";	c #D9D9D4",
">	c #DADAD6",
",	c #DCDCD7",
"'	c #DDDDD9",
")	c #DFDFDB",
"!	c #E0E0DD",
"~	c #E2E2DE",
"{	c #E3E3E0",
"]	c #E5E5E2",
"^	c #FDFDFD",
"/	c #E6E6E3",
"(	c #FCFCFB",
"_	c #E8E8E5",
":	c #FAFAFA",
"<	c #E9E9E7",
"[	c #F9F9F8",
"}	c #EBEBE8",
"|	c #F8F8F7",
"1	c #ECECEA",
"2	c #F6F6F5",
"3	c #EEEEEC",
"4	c #F5F5F4",
"5	c #EFEFEE",
"6	c #F4F4F2",
"7	c #F1F1EF",
"8	c #F2F2F1",
"9	c #9B9B98",
"0	c #444443",
"a	c #454544",
"b	c #454545",
"c	c #464645",
"d	c #464646",
"e	c #474746",
"f	c #A4A4A2",
"g	c #474747",
"h	c #484847",
"i	c #F4F4F3",
"j	c #F0F0EE",
"k	c #484848",
"l	c #9E9E9B",
"m	c #A7A7A6",
"n	c #F7F7F6",
"o	c #EDEDEB",
"p	c #F8F8F8",
"q	c #ECECE9",
"r	c #FAFAF9",
"s	c #EAEAE8",
"t	c #FBFBFB",
"u	c #929289",
"                   ",
".++++++++++++++++++",
".+@#$%&*=-;>,')!~{]",
".^#$%&*=-;>,')!~{]/",
".($%&*=-;>,')!~{]/_",
".:%&*=-;>,')!~{]/_<",
".[&*=-;>,')!~{]/_<}",
".|*=-;>,')!~{]/_<}1",
".2=-;>,')!~{]/_<}13",
".4-;>,')!~{]/_<}135",
".6;>,')!~{]/_<}1357",
".8>,'900aabcdef3578",
".7,')00aabcdegh578i",
".j')!0aabcdeghk78i4",
".3)!~labcdeghkm8i4n",
".o!~{]/_<}13578i4np",
".q~{]/_<}13578i4npr",
".s]/_<}13578i4nprt^",
".uuuuuuuuuuuuuuuuuu"};
