/* XPM */
static char * menu_xpm[] = {
"20 19 53 1",
" 	c None",
".	c #000000",
"+	c #FFFFFF",
"@	c #636770",
"#	c #D3D3CD",
"$	c #D4D4CF",
"%	c #D6D6D1",
"&	c #D7D7D2",
"*	c #D9D9D4",
"=	c #DADAD6",
"-	c #DCDCD7",
";	c #DDDDD9",
">	c #DFDFDB",
",	c #E0E0DD",
"'	c #E2E2DE",
")	c #E3E3E0",
"!	c #E5E5E2",
"~	c #E6E6E3",
"{	c #D1D1CC",
"]	c #E8E8E5",
"^	c #E9E9E7",
"/	c #E2E2DF",
"(	c #424241",
"_	c #454545",
":	c #464645",
"<	c #EBEBE8",
"[	c #E1E1DD",
"}	c #434342",
"|	c #464646",
"1	c #474746",
"2	c #ECECEA",
"3	c #DFDFDC",
"4	c #444443",
"5	c #474747",
"6	c #EEEEEC",
"7	c #DEDEDA",
"8	c #454544",
"9	c #EFEFEE",
"0	c #F1F1EF",
"a	c #DBDBD7",
"b	c #F2F2F1",
"c	c #F4F4F3",
"d	c #F5F5F4",
"e	c #D7D7D3",
"f	c #F7F7F6",
"g	c #F8F8F8",
"h	c #D5D5D0",
"i	c #FAFAF9",
"j	c #D3D3CE",
"k	c #FBFBFB",
"l	c #FDFDFD",
"m	c #D2D2CD",
"n	c #929289",
"     ...............",
"   ..++++++++++++++@",
"  .++#$%&*=-;>,')!~@",
" .+{#$%&*=-;>,')!~!@",
" .+#$%&*=-;>,')!~])@",
".+#$%&*=-;>,')!~]^/@",
".+$%&*((;>,')!_:^<[@",
".+%&*((}},')!_:|123@",
".+&*=(}}44)!_:|1567@",
".+*=-;}4488_:|1569;@",
".+=-;>,488_:|15690a@",
".+-;>,')8_:|15690b=@",
".+;>,')!~:|15690bc*@",
".+>,')!~]^15690bcde@",
".+,')!~]^<2690bcdf%@",
".+')!~]^<2690bcdfgh@",
".+)!~]^<2690bcdfgij@",
".+~]^<2690bcdfgiklm@",
".nnnnnnnnnnnnnnnnnn@"};
