/* XPM */
static char * title_back_xpm[] = {
"8 19 47 1",
" 	c #000000",
".	c #FAFAFB",
"+	c #EFF0F3",
"@	c #E1E3E8",
"#	c #E5E6EB",
"$	c #E2E4E9",
"%	c #DDDFE5",
"&	c #D8DBE2",
"*	c #D7DAE1",
"=	c #CFD2DA",
"-	c #CDD0D9",
";	c #D6D8E0",
">	c #C3C7D1",
",	c #CED1D9",
"'	c #C6C9D3",
")	c #B9BECA",
"!	c #C6CAD4",
"~	c #BDC2CD",
"{	c #BFC3CE",
"]	c #B5B9C6",
"^	c #AFB4C2",
"/	c #ACB1BF",
"(	c #A5ABBA",
"_	c #B7BCC8",
":	c #A1A7B6",
"<	c #B4B8C4",
"[	c #A8AEBB",
"}	c #9CA2B2",
"|	c #B0B4C1",
"1	c #A4A9B8",
"2	c #ACB1BE",
"3	c #9FA6B4",
"4	c #979EAE",
"5	c #9CA1B0",
"6	c #9399A9",
"7	c #A8ADBA",
"8	c #8E95A5",
"9	c #A4AAB7",
"0	c #979DAC",
"a	c #8A90A1",
"b	c #A1A6B4",
"c	c #9399A8",
"d	c #9DA3B0",
"e	c #8F95A5",
"f	c #858C9D",
"g	c #A1A8B6",
"h	c #111111",
"        ",
"........",
"++++++++",
"@#$@@#$@",
"%&**%&**",
"=--;=--;",
">>,'>>,'",
")!~))!~)",
"{]^^{]^^",
"/((_/((_",
"::<[::<[",
"}|1}}|1}",
"23442344",
"56675667",
"88908890",
"abcaabca",
"deffdeff",
"gggggggg",
"hhhhhhhh"};
